<svg width="841" height="474" viewBox="0 0 841 474" fill="none" xmlns="http://www.w3.org/2000/svg">
<rect x="183" y="78" width="658" height="84" rx="4" fill="#FDE68A"/>
<rect width="80" height="80" transform="translate(185 80)" fill="#524D3D"/>
<path d="M215.477 138V132.864H224.693V109.056H224.261L216.965 117.696L213.029 114.384L221.333 104.496H230.981V132.864H238.565V138H215.477Z" fill="#FDE68A"/>
<rect width="80" height="80" transform="translate(267 80)" fill="#524D3D"/>
<path d="M307.509 138.576C305.333 138.576 303.445 138.192 301.845 137.424C300.245 136.624 298.917 135.488 297.861 134.016C296.837 132.544 296.069 130.736 295.557 128.592C295.077 126.448 294.837 124 294.837 121.248C294.837 118.528 295.077 116.096 295.557 113.952C296.069 111.776 296.837 109.952 297.861 108.48C298.917 107.008 300.245 105.888 301.845 105.12C303.445 104.32 305.333 103.92 307.509 103.92C311.861 103.92 315.061 105.44 317.109 108.48C319.157 111.52 320.181 115.776 320.181 121.248C320.181 126.72 319.157 130.976 317.109 134.016C315.061 137.056 311.861 138.576 307.509 138.576ZM307.509 133.536C309.813 133.536 311.429 132.72 312.357 131.088C313.317 129.424 313.797 127.136 313.797 124.224V118.272C313.797 115.36 313.317 113.088 312.357 111.456C311.429 109.792 309.813 108.96 307.509 108.96C305.205 108.96 303.573 109.792 302.613 111.456C301.685 113.088 301.221 115.36 301.221 118.272V124.224C301.221 127.136 301.685 129.424 302.613 131.088C303.573 132.72 305.205 133.536 307.509 133.536ZM307.509 124.08C306.389 124.08 305.605 123.856 305.157 123.408C304.741 122.96 304.533 122.416 304.533 121.776V120.72C304.533 120.08 304.741 119.536 305.157 119.088C305.605 118.64 306.389 118.416 307.509 118.416C308.629 118.416 309.397 118.64 309.813 119.088C310.261 119.536 310.485 120.08 310.485 120.72V121.776C310.485 122.416 310.261 122.96 309.813 123.408C309.397 123.856 308.629 124.08 307.509 124.08Z" fill="#FDE68A"/>
<rect width="80" height="80" transform="translate(349 80)" fill="#524D3D"/>
<path d="M379.477 138V132.864H388.693V109.056H388.261L380.965 117.696L377.029 114.384L385.333 104.496H394.981V132.864H402.565V138H379.477Z" fill="#FDE68A"/>
<rect width="80" height="80" transform="translate(431 80)" fill="#524D3D"/>
<path d="M461.477 138V132.864H470.693V109.056H470.261L462.965 117.696L459.029 114.384L467.333 104.496H476.981V132.864H484.565V138H461.477Z" fill="#FDE68A"/>
<rect width="80" height="80" transform="translate(513 80)" fill="#524D3D"/>
<path d="M553.509 138.576C551.333 138.576 549.445 138.192 547.845 137.424C546.245 136.624 544.917 135.488 543.861 134.016C542.837 132.544 542.069 130.736 541.557 128.592C541.077 126.448 540.837 124 540.837 121.248C540.837 118.528 541.077 116.096 541.557 113.952C542.069 111.776 542.837 109.952 543.861 108.48C544.917 107.008 546.245 105.888 547.845 105.12C549.445 104.32 551.333 103.92 553.509 103.92C557.861 103.92 561.061 105.44 563.109 108.48C565.157 111.52 566.181 115.776 566.181 121.248C566.181 126.72 565.157 130.976 563.109 134.016C561.061 137.056 557.861 138.576 553.509 138.576ZM553.509 133.536C555.813 133.536 557.429 132.72 558.357 131.088C559.317 129.424 559.797 127.136 559.797 124.224V118.272C559.797 115.36 559.317 113.088 558.357 111.456C557.429 109.792 555.813 108.96 553.509 108.96C551.205 108.96 549.573 109.792 548.613 111.456C547.685 113.088 547.221 115.36 547.221 118.272V124.224C547.221 127.136 547.685 129.424 548.613 131.088C549.573 132.72 551.205 133.536 553.509 133.536ZM553.509 124.08C552.389 124.08 551.605 123.856 551.157 123.408C550.741 122.96 550.533 122.416 550.533 121.776V120.72C550.533 120.08 550.741 119.536 551.157 119.088C551.605 118.64 552.389 118.416 553.509 118.416C554.629 118.416 555.397 118.64 555.813 119.088C556.261 119.536 556.485 120.08 556.485 120.72V121.776C556.485 122.416 556.261 122.96 555.813 123.408C555.397 123.856 554.629 124.08 553.509 124.08Z" fill="#FDE68A"/>
<rect width="80" height="80" transform="translate(595 80)" fill="#524D3D"/>
<path d="M625.477 138V132.864H634.693V109.056H634.261L626.965 117.696L623.029 114.384L631.333 104.496H640.981V132.864H648.565V138H625.477Z" fill="#FDE68A"/>
<rect width="80" height="80" transform="translate(677 80)" fill="#524D3D"/>
<path d="M717.509 138.576C715.333 138.576 713.445 138.192 711.845 137.424C710.245 136.624 708.917 135.488 707.861 134.016C706.837 132.544 706.069 130.736 705.557 128.592C705.077 126.448 704.837 124 704.837 121.248C704.837 118.528 705.077 116.096 705.557 113.952C706.069 111.776 706.837 109.952 707.861 108.48C708.917 107.008 710.245 105.888 711.845 105.12C713.445 104.32 715.333 103.92 717.509 103.92C721.861 103.92 725.061 105.44 727.109 108.48C729.157 111.52 730.181 115.776 730.181 121.248C730.181 126.72 729.157 130.976 727.109 134.016C725.061 137.056 721.861 138.576 717.509 138.576ZM717.509 133.536C719.813 133.536 721.429 132.72 722.357 131.088C723.317 129.424 723.797 127.136 723.797 124.224V118.272C723.797 115.36 723.317 113.088 722.357 111.456C721.429 109.792 719.813 108.96 717.509 108.96C715.205 108.96 713.573 109.792 712.613 111.456C711.685 113.088 711.221 115.36 711.221 118.272V124.224C711.221 127.136 711.685 129.424 712.613 131.088C713.573 132.72 715.205 133.536 717.509 133.536ZM717.509 124.08C716.389 124.08 715.605 123.856 715.157 123.408C714.741 122.96 714.533 122.416 714.533 121.776V120.72C714.533 120.08 714.741 119.536 715.157 119.088C715.605 118.64 716.389 118.416 717.509 118.416C718.629 118.416 719.397 118.64 719.813 119.088C720.261 119.536 720.485 120.08 720.485 120.72V121.776C720.485 122.416 720.261 122.96 719.813 123.408C719.397 123.856 718.629 124.08 717.509 124.08Z" fill="#FDE68A"/>
<rect width="80" height="80" transform="translate(759 80)" fill="#524D3D"/>
<path d="M789.477 138V132.864H798.693V109.056H798.261L790.965 117.696L787.029 114.384L795.333 104.496H804.981V132.864H812.565V138H789.477Z" fill="#FDE68A"/>
<rect x="183" y="182" width="658" height="84" rx="4" fill="#FDE68A"/>
<rect width="80" height="80" transform="translate(185 184)" fill="#524D3D"/>
<path d="M215.477 242V236.864H224.693V213.056H224.261L216.965 221.696L213.029 218.384L221.333 208.496H230.981V236.864H238.565V242H215.477Z" fill="#FDE68A"/>
<rect width="80" height="80" transform="translate(267 184)" fill="#524D3D"/>
<path d="M307.509 242.576C305.333 242.576 303.445 242.192 301.845 241.424C300.245 240.624 298.917 239.488 297.861 238.016C296.837 236.544 296.069 234.736 295.557 232.592C295.077 230.448 294.837 228 294.837 225.248C294.837 222.528 295.077 220.096 295.557 217.952C296.069 215.776 296.837 213.952 297.861 212.48C298.917 211.008 300.245 209.888 301.845 209.12C303.445 208.32 305.333 207.92 307.509 207.92C311.861 207.92 315.061 209.44 317.109 212.48C319.157 215.52 320.181 219.776 320.181 225.248C320.181 230.72 319.157 234.976 317.109 238.016C315.061 241.056 311.861 242.576 307.509 242.576ZM307.509 237.536C309.813 237.536 311.429 236.72 312.357 235.088C313.317 233.424 313.797 231.136 313.797 228.224V222.272C313.797 219.36 313.317 217.088 312.357 215.456C311.429 213.792 309.813 212.96 307.509 212.96C305.205 212.96 303.573 213.792 302.613 215.456C301.685 217.088 301.221 219.36 301.221 222.272V228.224C301.221 231.136 301.685 233.424 302.613 235.088C303.573 236.72 305.205 237.536 307.509 237.536ZM307.509 228.08C306.389 228.08 305.605 227.856 305.157 227.408C304.741 226.96 304.533 226.416 304.533 225.776V224.72C304.533 224.08 304.741 223.536 305.157 223.088C305.605 222.64 306.389 222.416 307.509 222.416C308.629 222.416 309.397 222.64 309.813 223.088C310.261 223.536 310.485 224.08 310.485 224.72V225.776C310.485 226.416 310.261 226.96 309.813 227.408C309.397 227.856 308.629 228.08 307.509 228.08Z" fill="#FDE68A"/>
<rect width="80" height="80" transform="translate(349 184)" fill="#524D3D"/>
<path d="M379.477 242V236.864H388.693V213.056H388.261L380.965 221.696L377.029 218.384L385.333 208.496H394.981V236.864H402.565V242H379.477Z" fill="#FDE68A"/>
<rect width="80" height="80" transform="translate(431 184)" fill="#524D3D"/>
<path d="M461.477 242V236.864H470.693V213.056H470.261L462.965 221.696L459.029 218.384L467.333 208.496H476.981V236.864H484.565V242H461.477Z" fill="#FDE68A"/>
<rect width="80" height="80" transform="translate(513 184)" fill="#524D3D"/>
<path d="M553.509 242.576C551.333 242.576 549.445 242.192 547.845 241.424C546.245 240.624 544.917 239.488 543.861 238.016C542.837 236.544 542.069 234.736 541.557 232.592C541.077 230.448 540.837 228 540.837 225.248C540.837 222.528 541.077 220.096 541.557 217.952C542.069 215.776 542.837 213.952 543.861 212.48C544.917 211.008 546.245 209.888 547.845 209.12C549.445 208.32 551.333 207.92 553.509 207.92C557.861 207.92 561.061 209.44 563.109 212.48C565.157 215.52 566.181 219.776 566.181 225.248C566.181 230.72 565.157 234.976 563.109 238.016C561.061 241.056 557.861 242.576 553.509 242.576ZM553.509 237.536C555.813 237.536 557.429 236.72 558.357 235.088C559.317 233.424 559.797 231.136 559.797 228.224V222.272C559.797 219.36 559.317 217.088 558.357 215.456C557.429 213.792 555.813 212.96 553.509 212.96C551.205 212.96 549.573 213.792 548.613 215.456C547.685 217.088 547.221 219.36 547.221 222.272V228.224C547.221 231.136 547.685 233.424 548.613 235.088C549.573 236.72 551.205 237.536 553.509 237.536ZM553.509 228.08C552.389 228.08 551.605 227.856 551.157 227.408C550.741 226.96 550.533 226.416 550.533 225.776V224.72C550.533 224.08 550.741 223.536 551.157 223.088C551.605 222.64 552.389 222.416 553.509 222.416C554.629 222.416 555.397 222.64 555.813 223.088C556.261 223.536 556.485 224.08 556.485 224.72V225.776C556.485 226.416 556.261 226.96 555.813 227.408C555.397 227.856 554.629 228.08 553.509 228.08Z" fill="#FDE68A"/>
<rect width="80" height="80" transform="translate(595 184)" fill="#524D3D"/>
<path d="M625.477 242V236.864H634.693V213.056H634.261L626.965 221.696L623.029 218.384L631.333 208.496H640.981V236.864H648.565V242H625.477Z" fill="#FDE68A"/>
<rect width="80" height="80" transform="translate(677 184)" fill="#524D3D"/>
<path d="M717.509 242.576C715.333 242.576 713.445 242.192 711.845 241.424C710.245 240.624 708.917 239.488 707.861 238.016C706.837 236.544 706.069 234.736 705.557 232.592C705.077 230.448 704.837 228 704.837 225.248C704.837 222.528 705.077 220.096 705.557 217.952C706.069 215.776 706.837 213.952 707.861 212.48C708.917 211.008 710.245 209.888 711.845 209.12C713.445 208.32 715.333 207.92 717.509 207.92C721.861 207.92 725.061 209.44 727.109 212.48C729.157 215.52 730.181 219.776 730.181 225.248C730.181 230.72 729.157 234.976 727.109 238.016C725.061 241.056 721.861 242.576 717.509 242.576ZM717.509 237.536C719.813 237.536 721.429 236.72 722.357 235.088C723.317 233.424 723.797 231.136 723.797 228.224V222.272C723.797 219.36 723.317 217.088 722.357 215.456C721.429 213.792 719.813 212.96 717.509 212.96C715.205 212.96 713.573 213.792 712.613 215.456C711.685 217.088 711.221 219.36 711.221 222.272V228.224C711.221 231.136 711.685 233.424 712.613 235.088C713.573 236.72 715.205 237.536 717.509 237.536ZM717.509 228.08C716.389 228.08 715.605 227.856 715.157 227.408C714.741 226.96 714.533 226.416 714.533 225.776V224.72C714.533 224.08 714.741 223.536 715.157 223.088C715.605 222.64 716.389 222.416 717.509 222.416C718.629 222.416 719.397 222.64 719.813 223.088C720.261 223.536 720.485 224.08 720.485 224.72V225.776C720.485 226.416 720.261 226.96 719.813 227.408C719.397 227.856 718.629 228.08 717.509 228.08Z" fill="#FDE68A"/>
<rect width="80" height="80" transform="translate(759 184)" fill="#524D3D"/>
<path d="M789.477 242V236.864H798.693V213.056H798.261L790.965 221.696L787.029 218.384L795.333 208.496H804.981V236.864H812.565V242H789.477Z" fill="#FDE68A"/>
<rect x="183" y="286" width="658" height="84" rx="4" fill="#FDE68A"/>
<rect width="80" height="80" transform="translate(185 288)" fill="#524D3D"/>
<path d="M215.477 346V340.864H224.693V317.056H224.261L216.965 325.696L213.029 322.384L221.333 312.496H230.981V340.864H238.565V346H215.477Z" fill="#FDE68A"/>
<rect width="80" height="80" transform="translate(267 288)" fill="#524D3D"/>
<path d="M307.509 346.576C305.333 346.576 303.445 346.192 301.845 345.424C300.245 344.624 298.917 343.488 297.861 342.016C296.837 340.544 296.069 338.736 295.557 336.592C295.077 334.448 294.837 332 294.837 329.248C294.837 326.528 295.077 324.096 295.557 321.952C296.069 319.776 296.837 317.952 297.861 316.48C298.917 315.008 300.245 313.888 301.845 313.12C303.445 312.32 305.333 311.92 307.509 311.92C311.861 311.92 315.061 313.44 317.109 316.48C319.157 319.52 320.181 323.776 320.181 329.248C320.181 334.72 319.157 338.976 317.109 342.016C315.061 345.056 311.861 346.576 307.509 346.576ZM307.509 341.536C309.813 341.536 311.429 340.72 312.357 339.088C313.317 337.424 313.797 335.136 313.797 332.224V326.272C313.797 323.36 313.317 321.088 312.357 319.456C311.429 317.792 309.813 316.96 307.509 316.96C305.205 316.96 303.573 317.792 302.613 319.456C301.685 321.088 301.221 323.36 301.221 326.272V332.224C301.221 335.136 301.685 337.424 302.613 339.088C303.573 340.72 305.205 341.536 307.509 341.536ZM307.509 332.08C306.389 332.08 305.605 331.856 305.157 331.408C304.741 330.96 304.533 330.416 304.533 329.776V328.72C304.533 328.08 304.741 327.536 305.157 327.088C305.605 326.64 306.389 326.416 307.509 326.416C308.629 326.416 309.397 326.64 309.813 327.088C310.261 327.536 310.485 328.08 310.485 328.72V329.776C310.485 330.416 310.261 330.96 309.813 331.408C309.397 331.856 308.629 332.08 307.509 332.08Z" fill="#FDE68A"/>
<rect width="80" height="80" transform="translate(349 288)" fill="#524D3D"/>
<path d="M379.477 346V340.864H388.693V317.056H388.261L380.965 325.696L377.029 322.384L385.333 312.496H394.981V340.864H402.565V346H379.477Z" fill="#FDE68A"/>
<rect width="80" height="80" transform="translate(431 288)" fill="#524D3D"/>
<path d="M461.477 346V340.864H470.693V317.056H470.261L462.965 325.696L459.029 322.384L467.333 312.496H476.981V340.864H484.565V346H461.477Z" fill="#FDE68A"/>
<rect width="80" height="80" transform="translate(513 288)" fill="#524D3D"/>
<path d="M553.509 346.576C551.333 346.576 549.445 346.192 547.845 345.424C546.245 344.624 544.917 343.488 543.861 342.016C542.837 340.544 542.069 338.736 541.557 336.592C541.077 334.448 540.837 332 540.837 329.248C540.837 326.528 541.077 324.096 541.557 321.952C542.069 319.776 542.837 317.952 543.861 316.48C544.917 315.008 546.245 313.888 547.845 313.12C549.445 312.32 551.333 311.92 553.509 311.92C557.861 311.92 561.061 313.44 563.109 316.48C565.157 319.52 566.181 323.776 566.181 329.248C566.181 334.72 565.157 338.976 563.109 342.016C561.061 345.056 557.861 346.576 553.509 346.576ZM553.509 341.536C555.813 341.536 557.429 340.72 558.357 339.088C559.317 337.424 559.797 335.136 559.797 332.224V326.272C559.797 323.36 559.317 321.088 558.357 319.456C557.429 317.792 555.813 316.96 553.509 316.96C551.205 316.96 549.573 317.792 548.613 319.456C547.685 321.088 547.221 323.36 547.221 326.272V332.224C547.221 335.136 547.685 337.424 548.613 339.088C549.573 340.72 551.205 341.536 553.509 341.536ZM553.509 332.08C552.389 332.08 551.605 331.856 551.157 331.408C550.741 330.96 550.533 330.416 550.533 329.776V328.72C550.533 328.08 550.741 327.536 551.157 327.088C551.605 326.64 552.389 326.416 553.509 326.416C554.629 326.416 555.397 326.64 555.813 327.088C556.261 327.536 556.485 328.08 556.485 328.72V329.776C556.485 330.416 556.261 330.96 555.813 331.408C555.397 331.856 554.629 332.08 553.509 332.08Z" fill="#FDE68A"/>
<rect width="80" height="80" transform="translate(595 288)" fill="#524D3D"/>
<path d="M625.477 346V340.864H634.693V317.056H634.261L626.965 325.696L623.029 322.384L631.333 312.496H640.981V340.864H648.565V346H625.477Z" fill="#FDE68A"/>
<rect width="80" height="80" transform="translate(677 288)" fill="#524D3D"/>
<path d="M717.509 346.576C715.333 346.576 713.445 346.192 711.845 345.424C710.245 344.624 708.917 343.488 707.861 342.016C706.837 340.544 706.069 338.736 705.557 336.592C705.077 334.448 704.837 332 704.837 329.248C704.837 326.528 705.077 324.096 705.557 321.952C706.069 319.776 706.837 317.952 707.861 316.48C708.917 315.008 710.245 313.888 711.845 313.12C713.445 312.32 715.333 311.92 717.509 311.92C721.861 311.92 725.061 313.44 727.109 316.48C729.157 319.52 730.181 323.776 730.181 329.248C730.181 334.72 729.157 338.976 727.109 342.016C725.061 345.056 721.861 346.576 717.509 346.576ZM717.509 341.536C719.813 341.536 721.429 340.72 722.357 339.088C723.317 337.424 723.797 335.136 723.797 332.224V326.272C723.797 323.36 723.317 321.088 722.357 319.456C721.429 317.792 719.813 316.96 717.509 316.96C715.205 316.96 713.573 317.792 712.613 319.456C711.685 321.088 711.221 323.36 711.221 326.272V332.224C711.221 335.136 711.685 337.424 712.613 339.088C713.573 340.72 715.205 341.536 717.509 341.536ZM717.509 332.08C716.389 332.08 715.605 331.856 715.157 331.408C714.741 330.96 714.533 330.416 714.533 329.776V328.72C714.533 328.08 714.741 327.536 715.157 327.088C715.605 326.64 716.389 326.416 717.509 326.416C718.629 326.416 719.397 326.64 719.813 327.088C720.261 327.536 720.485 328.08 720.485 328.72V329.776C720.485 330.416 720.261 330.96 719.813 331.408C719.397 331.856 718.629 332.08 717.509 332.08Z" fill="#FDE68A"/>
<rect width="80" height="80" transform="translate(759 288)" fill="#524D3D"/>
<path d="M789.477 346V340.864H798.693V317.056H798.261L790.965 325.696L787.029 322.384L795.333 312.496H804.981V340.864H812.565V346H789.477Z" fill="#FDE68A"/>
<rect x="183" y="390" width="658" height="84" rx="4" fill="#FDE68A"/>
<rect width="80" height="80" transform="translate(185 392)" fill="#524D3D"/>
<path d="M215.477 450V444.864H224.693V421.056H224.261L216.965 429.696L213.029 426.384L221.333 416.496H230.981V444.864H238.565V450H215.477Z" fill="#FDE68A"/>
<rect width="80" height="80" transform="translate(267 392)" fill="#524D3D"/>
<path d="M307.509 450.576C305.333 450.576 303.445 450.192 301.845 449.424C300.245 448.624 298.917 447.488 297.861 446.016C296.837 444.544 296.069 442.736 295.557 440.592C295.077 438.448 294.837 436 294.837 433.248C294.837 430.528 295.077 428.096 295.557 425.952C296.069 423.776 296.837 421.952 297.861 420.48C298.917 419.008 300.245 417.888 301.845 417.12C303.445 416.32 305.333 415.92 307.509 415.92C311.861 415.92 315.061 417.44 317.109 420.48C319.157 423.52 320.181 427.776 320.181 433.248C320.181 438.72 319.157 442.976 317.109 446.016C315.061 449.056 311.861 450.576 307.509 450.576ZM307.509 445.536C309.813 445.536 311.429 444.72 312.357 443.088C313.317 441.424 313.797 439.136 313.797 436.224V430.272C313.797 427.36 313.317 425.088 312.357 423.456C311.429 421.792 309.813 420.96 307.509 420.96C305.205 420.96 303.573 421.792 302.613 423.456C301.685 425.088 301.221 427.36 301.221 430.272V436.224C301.221 439.136 301.685 441.424 302.613 443.088C303.573 444.72 305.205 445.536 307.509 445.536ZM307.509 436.08C306.389 436.08 305.605 435.856 305.157 435.408C304.741 434.96 304.533 434.416 304.533 433.776V432.72C304.533 432.08 304.741 431.536 305.157 431.088C305.605 430.64 306.389 430.416 307.509 430.416C308.629 430.416 309.397 430.64 309.813 431.088C310.261 431.536 310.485 432.08 310.485 432.72V433.776C310.485 434.416 310.261 434.96 309.813 435.408C309.397 435.856 308.629 436.08 307.509 436.08Z" fill="#FDE68A"/>
<rect width="80" height="80" transform="translate(349 392)" fill="#524D3D"/>
<path d="M379.477 450V444.864H388.693V421.056H388.261L380.965 429.696L377.029 426.384L385.333 416.496H394.981V444.864H402.565V450H379.477Z" fill="#FDE68A"/>
<rect width="80" height="80" transform="translate(431 392)" fill="#524D3D"/>
<path d="M461.477 450V444.864H470.693V421.056H470.261L462.965 429.696L459.029 426.384L467.333 416.496H476.981V444.864H484.565V450H461.477Z" fill="#FDE68A"/>
<rect width="80" height="80" transform="translate(513 392)" fill="#524D3D"/>
<path d="M553.509 450.576C551.333 450.576 549.445 450.192 547.845 449.424C546.245 448.624 544.917 447.488 543.861 446.016C542.837 444.544 542.069 442.736 541.557 440.592C541.077 438.448 540.837 436 540.837 433.248C540.837 430.528 541.077 428.096 541.557 425.952C542.069 423.776 542.837 421.952 543.861 420.48C544.917 419.008 546.245 417.888 547.845 417.12C549.445 416.32 551.333 415.92 553.509 415.92C557.861 415.92 561.061 417.44 563.109 420.48C565.157 423.52 566.181 427.776 566.181 433.248C566.181 438.72 565.157 442.976 563.109 446.016C561.061 449.056 557.861 450.576 553.509 450.576ZM553.509 445.536C555.813 445.536 557.429 444.72 558.357 443.088C559.317 441.424 559.797 439.136 559.797 436.224V430.272C559.797 427.36 559.317 425.088 558.357 423.456C557.429 421.792 555.813 420.96 553.509 420.96C551.205 420.96 549.573 421.792 548.613 423.456C547.685 425.088 547.221 427.36 547.221 430.272V436.224C547.221 439.136 547.685 441.424 548.613 443.088C549.573 444.72 551.205 445.536 553.509 445.536ZM553.509 436.08C552.389 436.08 551.605 435.856 551.157 435.408C550.741 434.96 550.533 434.416 550.533 433.776V432.72C550.533 432.08 550.741 431.536 551.157 431.088C551.605 430.64 552.389 430.416 553.509 430.416C554.629 430.416 555.397 430.64 555.813 431.088C556.261 431.536 556.485 432.08 556.485 432.72V433.776C556.485 434.416 556.261 434.96 555.813 435.408C555.397 435.856 554.629 436.08 553.509 436.08Z" fill="#FDE68A"/>
<rect width="80" height="80" transform="translate(595 392)" fill="#524D3D"/>
<path d="M625.477 450V444.864H634.693V421.056H634.261L626.965 429.696L623.029 426.384L631.333 416.496H640.981V444.864H648.565V450H625.477Z" fill="#FDE68A"/>
<rect width="80" height="80" transform="translate(677 392)" fill="#524D3D"/>
<path d="M717.509 450.576C715.333 450.576 713.445 450.192 711.845 449.424C710.245 448.624 708.917 447.488 707.861 446.016C706.837 444.544 706.069 442.736 705.557 440.592C705.077 438.448 704.837 436 704.837 433.248C704.837 430.528 705.077 428.096 705.557 425.952C706.069 423.776 706.837 421.952 707.861 420.48C708.917 419.008 710.245 417.888 711.845 417.12C713.445 416.32 715.333 415.92 717.509 415.92C721.861 415.92 725.061 417.44 727.109 420.48C729.157 423.52 730.181 427.776 730.181 433.248C730.181 438.72 729.157 442.976 727.109 446.016C725.061 449.056 721.861 450.576 717.509 450.576ZM717.509 445.536C719.813 445.536 721.429 444.72 722.357 443.088C723.317 441.424 723.797 439.136 723.797 436.224V430.272C723.797 427.36 723.317 425.088 722.357 423.456C721.429 421.792 719.813 420.96 717.509 420.96C715.205 420.96 713.573 421.792 712.613 423.456C711.685 425.088 711.221 427.36 711.221 430.272V436.224C711.221 439.136 711.685 441.424 712.613 443.088C713.573 444.72 715.205 445.536 717.509 445.536ZM717.509 436.08C716.389 436.08 715.605 435.856 715.157 435.408C714.741 434.96 714.533 434.416 714.533 433.776V432.72C714.533 432.08 714.741 431.536 715.157 431.088C715.605 430.64 716.389 430.416 717.509 430.416C718.629 430.416 719.397 430.64 719.813 431.088C720.261 431.536 720.485 432.08 720.485 432.72V433.776C720.485 434.416 720.261 434.96 719.813 435.408C719.397 435.856 718.629 436.08 717.509 436.08Z" fill="#FDE68A"/>
<rect width="80" height="80" transform="translate(759 392)" fill="#524D3D"/>
<path d="M789.477 450V444.864H798.693V421.056H798.261L790.965 429.696L787.029 426.384L795.333 416.496H804.981V444.864H812.565V450H789.477Z" fill="#FDE68A"/>
<path d="M18.504 37L16.488 30.592H7.56L5.58 37H0.756L9.18 11.872H15.084L23.436 37H18.504ZM12.096 16.192H11.916L8.712 26.524H15.336L12.096 16.192ZM38.5155 33.868H38.3355C37.9995 34.948 37.3635 35.812 36.4275 36.46C35.4915 37.108 34.3995 37.432 33.1515 37.432C30.7755 37.432 28.9515 36.58 27.6795 34.876C26.4315 33.172 25.8075 30.736 25.8075 27.568C25.8075 24.424 26.4315 22.012 27.6795 20.332C28.9515 18.628 30.7755 17.776 33.1515 17.776C34.3995 17.776 35.4915 18.1 36.4275 18.748C37.3635 19.372 37.9995 20.224 38.3355 21.304H38.5155V10.36H43.1235V37H38.5155V33.868ZM34.6275 33.616C35.7315 33.616 36.6555 33.352 37.3995 32.824C38.1435 32.296 38.5155 31.54 38.5155 30.556V24.58C38.5155 23.668 38.1435 22.936 37.3995 22.384C36.6555 21.832 35.7315 21.556 34.6275 21.556C33.4275 21.556 32.4555 21.964 31.7115 22.78C30.9915 23.572 30.6315 24.64 30.6315 25.984V29.224C30.6315 30.568 30.9915 31.636 31.7115 32.428C32.4555 33.22 33.4275 33.616 34.6275 33.616ZM60.1014 33.868H59.9214C59.5854 34.948 58.9494 35.812 58.0134 36.46C57.0774 37.108 55.9854 37.432 54.7374 37.432C52.3614 37.432 50.5374 36.58 49.2654 34.876C48.0174 33.172 47.3934 30.736 47.3934 27.568C47.3934 24.424 48.0174 22.012 49.2654 20.332C50.5374 18.628 52.3614 17.776 54.7374 17.776C55.9854 17.776 57.0774 18.1 58.0134 18.748C58.9494 19.372 59.5854 20.224 59.9214 21.304H60.1014V10.36H64.7094V37H60.1014V33.868ZM56.2134 33.616C57.3174 33.616 58.2414 33.352 58.9854 32.824C59.7294 32.296 60.1014 31.54 60.1014 30.556V24.58C60.1014 23.668 59.7294 22.936 58.9854 22.384C58.2414 21.832 57.3174 21.556 56.2134 21.556C55.0134 21.556 54.0414 21.964 53.2974 22.78C52.5774 23.572 52.2174 24.64 52.2174 25.984V29.224C52.2174 30.568 52.5774 31.636 53.2974 32.428C54.0414 33.22 55.0134 33.616 56.2134 33.616ZM70.0234 37V18.208H74.6314V22.096H74.8114C74.9314 21.592 75.1114 21.112 75.3514 20.656C75.6154 20.176 75.9514 19.756 76.3594 19.396C76.7674 19.036 77.2474 18.748 77.7994 18.532C78.3754 18.316 79.0354 18.208 79.7794 18.208H80.7874V22.564H79.3474C77.7874 22.564 76.6114 22.792 75.8194 23.248C75.0274 23.704 74.6314 24.448 74.6314 25.48V37H70.0234ZM91.5764 37.432C90.1844 37.432 88.9364 37.204 87.8324 36.748C86.7524 36.268 85.8284 35.608 85.0604 34.768C84.3164 33.904 83.7404 32.872 83.3324 31.672C82.9244 30.448 82.7204 29.08 82.7204 27.568C82.7204 26.08 82.9124 24.736 83.2964 23.536C83.7044 22.336 84.2804 21.316 85.0244 20.476C85.7684 19.612 86.6804 18.952 87.7604 18.496C88.8404 18.016 90.0644 17.776 91.4324 17.776C92.8964 17.776 94.1684 18.028 95.2484 18.532C96.3284 19.036 97.2164 19.72 97.9124 20.584C98.6084 21.448 99.1244 22.456 99.4604 23.608C99.8204 24.736 100 25.948 100 27.244V28.756H87.5084V29.224C87.5084 30.592 87.8924 31.696 88.6604 32.536C89.4284 33.352 90.5684 33.76 92.0804 33.76C93.2324 33.76 94.1684 33.52 94.8884 33.04C95.6324 32.56 96.2924 31.948 96.8684 31.204L99.3524 33.976C98.5844 35.056 97.5284 35.908 96.1844 36.532C94.8644 37.132 93.3284 37.432 91.5764 37.432ZM91.5044 21.232C90.2804 21.232 89.3084 21.64 88.5884 22.456C87.8684 23.272 87.5084 24.328 87.5084 25.624V25.912H95.2124V25.588C95.2124 24.292 94.8884 23.248 94.2404 22.456C93.6164 21.64 92.7044 21.232 91.5044 21.232ZM110.211 37.432C108.411 37.432 106.899 37.132 105.675 36.532C104.451 35.908 103.371 35.056 102.435 33.976L105.243 31.24C105.939 32.032 106.695 32.656 107.511 33.112C108.351 33.568 109.311 33.796 110.391 33.796C111.495 33.796 112.287 33.604 112.767 33.22C113.271 32.836 113.523 32.308 113.523 31.636C113.523 31.084 113.343 30.652 112.983 30.34C112.647 30.004 112.059 29.776 111.219 29.656L109.347 29.404C107.307 29.14 105.747 28.564 104.667 27.676C103.611 26.764 103.083 25.444 103.083 23.716C103.083 22.804 103.251 21.988 103.587 21.268C103.923 20.524 104.403 19.9 105.027 19.396C105.651 18.868 106.395 18.472 107.259 18.208C108.147 17.92 109.131 17.776 110.211 17.776C111.123 17.776 111.927 17.848 112.623 17.992C113.343 18.112 113.991 18.304 114.567 18.568C115.143 18.808 115.671 19.12 116.151 19.504C116.631 19.864 117.099 20.272 117.555 20.728L114.855 23.428C114.303 22.852 113.643 22.372 112.875 21.988C112.107 21.604 111.267 21.412 110.355 21.412C109.347 21.412 108.615 21.592 108.159 21.952C107.727 22.312 107.511 22.78 107.511 23.356C107.511 23.98 107.691 24.46 108.051 24.796C108.435 25.108 109.071 25.336 109.959 25.48L111.867 25.732C115.923 26.308 117.951 28.156 117.951 31.276C117.951 32.188 117.759 33.028 117.375 33.796C117.015 34.54 116.499 35.188 115.827 35.74C115.155 36.268 114.339 36.688 113.379 37C112.443 37.288 111.387 37.432 110.211 37.432ZM127.929 37.432C126.129 37.432 124.617 37.132 123.393 36.532C122.169 35.908 121.089 35.056 120.153 33.976L122.961 31.24C123.657 32.032 124.413 32.656 125.229 33.112C126.069 33.568 127.029 33.796 128.109 33.796C129.213 33.796 130.005 33.604 130.485 33.22C130.989 32.836 131.241 32.308 131.241 31.636C131.241 31.084 131.061 30.652 130.701 30.34C130.365 30.004 129.777 29.776 128.937 29.656L127.065 29.404C125.025 29.14 123.465 28.564 122.385 27.676C121.329 26.764 120.801 25.444 120.801 23.716C120.801 22.804 120.969 21.988 121.305 21.268C121.641 20.524 122.121 19.9 122.745 19.396C123.369 18.868 124.113 18.472 124.977 18.208C125.865 17.92 126.849 17.776 127.929 17.776C128.841 17.776 129.645 17.848 130.341 17.992C131.061 18.112 131.709 18.304 132.285 18.568C132.861 18.808 133.389 19.12 133.869 19.504C134.349 19.864 134.817 20.272 135.273 20.728L132.573 23.428C132.021 22.852 131.361 22.372 130.593 21.988C129.825 21.604 128.985 21.412 128.073 21.412C127.065 21.412 126.333 21.592 125.877 21.952C125.445 22.312 125.229 22.78 125.229 23.356C125.229 23.98 125.409 24.46 125.769 24.796C126.153 25.108 126.789 25.336 127.677 25.48L129.585 25.732C133.641 26.308 135.669 28.156 135.669 31.276C135.669 32.188 135.477 33.028 135.093 33.796C134.733 34.54 134.217 35.188 133.545 35.74C132.873 36.268 132.057 36.688 131.097 37C130.161 37.288 129.105 37.432 127.929 37.432Z" fill="white"/>
<path d="M465.924 18.964H465.78L463.836 22.96L458.688 32.464L453.54 22.96L451.596 18.964H451.452V37H446.952V11.872H452.316L458.76 24.148H458.904L465.276 11.872H470.424V37H465.924V18.964ZM483.651 37.432C482.259 37.432 481.011 37.204 479.907 36.748C478.827 36.268 477.903 35.608 477.135 34.768C476.391 33.904 475.815 32.872 475.407 31.672C474.999 30.448 474.795 29.08 474.795 27.568C474.795 26.08 474.987 24.736 475.371 23.536C475.779 22.336 476.355 21.316 477.099 20.476C477.843 19.612 478.755 18.952 479.835 18.496C480.915 18.016 482.139 17.776 483.507 17.776C484.971 17.776 486.243 18.028 487.323 18.532C488.403 19.036 489.291 19.72 489.987 20.584C490.683 21.448 491.199 22.456 491.535 23.608C491.895 24.736 492.075 25.948 492.075 27.244V28.756H479.583V29.224C479.583 30.592 479.967 31.696 480.735 32.536C481.503 33.352 482.643 33.76 484.155 33.76C485.307 33.76 486.243 33.52 486.963 33.04C487.707 32.56 488.367 31.948 488.943 31.204L491.427 33.976C490.659 35.056 489.603 35.908 488.259 36.532C486.939 37.132 485.403 37.432 483.651 37.432ZM483.579 21.232C482.355 21.232 481.383 21.64 480.663 22.456C479.943 23.272 479.583 24.328 479.583 25.624V25.912H487.287V25.588C487.287 24.292 486.963 23.248 486.315 22.456C485.691 21.64 484.779 21.232 483.579 21.232ZM496.129 37V18.208H500.737V21.34H500.917C501.277 20.356 501.853 19.516 502.645 18.82C503.437 18.124 504.541 17.776 505.957 17.776C507.253 17.776 508.369 18.088 509.305 18.712C510.241 19.336 510.937 20.284 511.393 21.556H511.465C511.801 20.5 512.461 19.612 513.445 18.892C514.453 18.148 515.713 17.776 517.225 17.776C519.073 17.776 520.489 18.412 521.473 19.684C522.481 20.956 522.985 22.768 522.985 25.12V37H518.377V25.588C518.377 22.9 517.369 21.556 515.353 21.556C514.897 21.556 514.453 21.628 514.021 21.772C513.613 21.892 513.241 22.084 512.905 22.348C512.593 22.588 512.341 22.9 512.149 23.284C511.957 23.644 511.861 24.076 511.861 24.58V37H507.253V25.588C507.253 22.9 506.245 21.556 504.229 21.556C503.797 21.556 503.365 21.628 502.933 21.772C502.525 21.892 502.153 22.084 501.817 22.348C501.505 22.588 501.241 22.9 501.025 23.284C500.833 23.644 500.737 24.076 500.737 24.58V37H496.129ZM535.538 37.432C534.194 37.432 532.982 37.204 531.902 36.748C530.846 36.292 529.934 35.632 529.166 34.768C528.422 33.904 527.846 32.872 527.438 31.672C527.03 30.448 526.826 29.08 526.826 27.568C526.826 26.056 527.03 24.7 527.438 23.5C527.846 22.3 528.422 21.28 529.166 20.44C529.934 19.576 530.846 18.916 531.902 18.46C532.982 18.004 534.194 17.776 535.538 17.776C536.882 17.776 538.094 18.004 539.174 18.46C540.254 18.916 541.166 19.576 541.91 20.44C542.678 21.28 543.266 22.3 543.674 23.5C544.082 24.7 544.286 26.056 544.286 27.568C544.286 29.08 544.082 30.448 543.674 31.672C543.266 32.872 542.678 33.904 541.91 34.768C541.166 35.632 540.254 36.292 539.174 36.748C538.094 37.204 536.882 37.432 535.538 37.432ZM535.538 33.724C536.762 33.724 537.722 33.352 538.418 32.608C539.114 31.864 539.462 30.772 539.462 29.332V25.84C539.462 24.424 539.114 23.344 538.418 22.6C537.722 21.856 536.762 21.484 535.538 21.484C534.338 21.484 533.39 21.856 532.694 22.6C531.998 23.344 531.65 24.424 531.65 25.84V29.332C531.65 30.772 531.998 31.864 532.694 32.608C533.39 33.352 534.338 33.724 535.538 33.724ZM548.371 37V18.208H552.979V22.096H553.159C553.279 21.592 553.459 21.112 553.699 20.656C553.963 20.176 554.299 19.756 554.707 19.396C555.115 19.036 555.595 18.748 556.147 18.532C556.723 18.316 557.383 18.208 558.127 18.208H559.135V22.564H557.695C556.135 22.564 554.959 22.792 554.167 23.248C553.375 23.704 552.979 24.448 552.979 25.48V37H548.371ZM574.305 18.208H578.625L571.065 40.348C570.825 41.02 570.549 41.596 570.237 42.076C569.949 42.58 569.601 42.988 569.193 43.3C568.785 43.612 568.293 43.84 567.717 43.984C567.141 44.128 566.469 44.2 565.701 44.2H562.929V40.528H566.313L567.177 37.9L560.445 18.208H565.017L568.293 28.144L569.517 32.896H569.733L571.029 28.144L574.305 18.208Z" fill="white"/>
<path d="M68.4 138.576C66.256 138.576 64.4 138.192 62.832 137.424C61.264 136.624 59.968 135.488 58.944 134.016C57.92 132.544 57.152 130.736 56.64 128.592C56.16 126.448 55.92 124 55.92 121.248C55.92 118.528 56.16 116.096 56.64 113.952C57.152 111.776 57.92 109.952 58.944 108.48C59.968 107.008 61.264 105.888 62.832 105.12C64.4 104.32 66.256 103.92 68.4 103.92C72.656 103.92 75.792 105.44 77.808 108.48C79.856 111.52 80.88 115.776 80.88 121.248C80.88 126.72 79.856 130.976 77.808 134.016C75.792 137.056 72.656 138.576 68.4 138.576ZM68.4 133.248C70.544 133.248 72.032 132.448 72.864 130.848C73.728 129.216 74.16 127.024 74.16 124.272V118.224C74.16 115.472 73.728 113.296 72.864 111.696C72.032 110.064 70.544 109.248 68.4 109.248C66.256 109.248 64.752 110.064 63.888 111.696C63.056 113.296 62.64 115.472 62.64 118.224V124.272C62.64 127.024 63.056 129.216 63.888 130.848C64.752 132.448 66.256 133.248 68.4 133.248Z" fill="#FDE68A"/>
<path d="M58.368 242V236.864H67.584V213.056H67.152L59.856 221.696L55.92 218.384L64.224 208.496H73.776V236.864H81.456V242H58.368Z" fill="#FDE68A"/>
<path d="M80.208 346H56.976V340.144L67.488 330.928C69.28 329.36 70.592 327.952 71.424 326.704C72.256 325.424 72.672 324.048 72.672 322.576V321.952C72.672 320.48 72.192 319.36 71.232 318.592C70.272 317.792 69.104 317.392 67.728 317.392C66 317.392 64.688 317.888 63.792 318.88C62.896 319.84 62.256 321.008 61.872 322.384L56.4 320.272C56.752 319.152 57.248 318.096 57.888 317.104C58.528 316.08 59.328 315.184 60.288 314.416C61.28 313.648 62.432 313.04 63.744 312.592C65.056 312.144 66.56 311.92 68.256 311.92C70.016 311.92 71.584 312.176 72.96 312.688C74.336 313.168 75.488 313.856 76.416 314.752C77.376 315.648 78.096 316.704 78.576 317.92C79.088 319.136 79.344 320.464 79.344 321.904C79.344 323.312 79.12 324.592 78.672 325.744C78.224 326.896 77.616 328 76.848 329.056C76.08 330.08 75.184 331.072 74.16 332.032C73.136 332.96 72.048 333.904 70.896 334.864L63.84 340.672H80.208V346Z" fill="#FDE68A"/>
<path d="M66.576 430.032C68.496 430.032 69.904 429.648 70.8 428.88C71.728 428.08 72.192 427.072 72.192 425.856V425.52C72.192 424.144 71.744 423.072 70.848 422.304C69.984 421.504 68.784 421.104 67.248 421.104C65.776 421.104 64.464 421.456 63.312 422.16C62.192 422.864 61.216 423.856 60.384 425.136L56.352 421.488C56.928 420.72 57.552 420 58.224 419.328C58.928 418.624 59.728 418.032 60.624 417.552C61.52 417.04 62.528 416.64 63.648 416.352C64.768 416.064 66.032 415.92 67.44 415.92C69.136 415.92 70.672 416.128 72.048 416.544C73.456 416.928 74.656 417.504 75.648 418.272C76.672 419.04 77.456 419.968 78 421.056C78.544 422.112 78.816 423.312 78.816 424.656C78.816 425.744 78.64 426.72 78.288 427.584C77.968 428.448 77.504 429.2 76.896 429.84C76.32 430.48 75.632 431.008 74.832 431.424C74.064 431.808 73.248 432.096 72.384 432.288V432.576C73.344 432.768 74.256 433.072 75.12 433.488C75.984 433.904 76.72 434.464 77.328 435.168C77.968 435.84 78.464 436.64 78.816 437.568C79.2 438.496 79.392 439.552 79.392 440.736C79.392 442.208 79.088 443.552 78.48 444.768C77.904 445.984 77.072 447.024 75.984 447.888C74.896 448.752 73.6 449.424 72.096 449.904C70.592 450.352 68.912 450.576 67.056 450.576C65.424 450.576 63.984 450.4 62.736 450.048C61.488 449.728 60.384 449.28 59.424 448.704C58.496 448.128 57.68 447.472 56.976 446.736C56.272 445.968 55.664 445.168 55.152 444.336L59.808 440.784C60.192 441.456 60.608 442.08 61.056 442.656C61.504 443.2 62.016 443.68 62.592 444.096C63.168 444.512 63.824 444.832 64.56 445.056C65.296 445.28 66.128 445.392 67.056 445.392C68.912 445.392 70.336 444.944 71.328 444.048C72.32 443.152 72.816 441.92 72.816 440.352V440.016C72.816 438.48 72.272 437.312 71.184 436.512C70.128 435.712 68.592 435.312 66.576 435.312H63.264V430.032H66.576Z" fill="#FDE68A"/>
</svg>
